<?xml version="1.0" encoding="iso-8859-1"?>
<!-- Generator: Adobe Illustrator 19.0.0, SVG Export Plug-In . SVG Version: 6.00 Build 0)  -->
<svg version="1.1" id="Capa_1" xmlns="http://www.w3.org/2000/svg" xmlns:xlink="http://www.w3.org/1999/xlink" x="0px" y="0px"
	 viewBox="0 0 512 512" style="enable-background:new 0 0 512 512;" xml:space="preserve">
<g>
	<path style="fill:#9BC8C2;" d="M370.759,79.448v414.897c-0.029,9.739-7.916,17.627-17.655,17.655H17.655
		C7.916,511.971,0.029,504.084,0,494.345V17.655C0.028,7.916,7.916,0.028,17.655,0H291.31v70.621
		c0.015,4.869,3.958,8.813,8.828,8.828H370.759z"/>
	<path style="fill:#547580;" d="M370.759,79.448h-70.621c-4.869-0.015-8.813-3.958-8.828-8.828V0L370.759,79.448z"/>
	<path style="fill:#24AE5F;" d="M132.414,97.713v140.022c-0.044,3.63,2.029,6.952,5.309,8.508c3.28,1.556,7.165,1.059,9.948-1.272
		l87.328-73.696c2.187-1.858,3.417-4.606,3.344-7.475c-0.073-2.869-1.439-5.551-3.718-7.297l-87.328-66.326
		c-2.831-2.131-6.627-2.466-9.788-0.866C134.348,90.911,132.372,94.17,132.414,97.713z"/>
	<g>
		<path style="fill:#2C3E50;" d="M317.793,317.793H52.966c-4.875,0-8.828-3.952-8.828-8.828s3.952-8.828,8.828-8.828h264.828
			c4.875,0,8.828,3.952,8.828,8.828S322.668,317.793,317.793,317.793z"/>
		<path style="fill:#2C3E50;" d="M317.793,361.931H52.966c-4.875,0-8.828-3.952-8.828-8.828s3.952-8.828,8.828-8.828h264.828
			c4.875,0,8.828,3.952,8.828,8.828S322.668,361.931,317.793,361.931z"/>
		<path style="fill:#2C3E50;" d="M317.793,406.069H52.966c-4.875,0-8.828-3.952-8.828-8.828c0-4.875,3.952-8.828,8.828-8.828
			h264.828c4.875,0,8.828,3.952,8.828,8.828C326.621,402.117,322.668,406.069,317.793,406.069z"/>
		<path style="fill:#2C3E50;" d="M317.793,450.207H52.966c-4.875,0-8.828-3.952-8.828-8.828s3.952-8.828,8.828-8.828h264.828
			c4.875,0,8.828,3.952,8.828,8.828S322.668,450.207,317.793,450.207z"/>
	</g>
	<circle style="fill:#DF4D60;" cx="397.241" cy="397.241" r="114.759"/>
	<g>
		<path style="fill:#FFFFFF;" d="M397.241,467.862c-2.342,0.001-4.588-0.928-6.244-2.584c-1.656-1.656-2.585-3.902-2.584-6.244
			V335.448c0-4.875,3.952-8.828,8.828-8.828c4.875,0,8.828,3.952,8.828,8.828v123.586c0.001,2.342-0.928,4.588-2.584,6.244
			C401.829,466.934,399.583,467.863,397.241,467.862z"/>
		<path style="fill:#FFFFFF;" d="M459.034,406.069H335.448c-4.875,0-8.828-3.952-8.828-8.828c0-4.875,3.952-8.828,8.828-8.828
			h123.586c4.875,0,8.828,3.952,8.828,8.828C467.862,402.117,463.91,406.069,459.034,406.069z"/>
	</g>
</g>
<g>
</g>
<g>
</g>
<g>
</g>
<g>
</g>
<g>
</g>
<g>
</g>
<g>
</g>
<g>
</g>
<g>
</g>
<g>
</g>
<g>
</g>
<g>
</g>
<g>
</g>
<g>
</g>
<g>
</g>
</svg>
