<svg height="512pt" viewBox="0 0 512 512" width="512pt" xmlns="http://www.w3.org/2000/svg"><path d="m0 79.449219h44.136719v353.101562h-44.136719zm0 0" fill="#bde3ff"/><path d="m35.308594 52.964844h44.140625v406.070312h-44.140625zm0 0" fill="#83bbed"/><path d="m70.621094 26.492188h52.964844v459.035156h-52.964844zm0 0" fill="#5792d3"/><path d="m459.035156 79.4375h52.964844v353.105469h-52.964844zm0 0" fill="#bde3ff"/><path d="m432.550781 52.957031h44.140625v406.070313h-44.140625zm0 0" fill="#83bbed"/><path d="m379.59375 26.464844h61.792969v459.035156h-61.792969zm0 0" fill="#5792d3"/><path d="m291.308594 0h-185.378906v512h300.140624v-512zm0 0" fill="#366db6"/><g fill="#fff"><path d="m203.035156 361.929688c-19.472656 0-35.3125-15.835938-35.3125-35.308594s15.839844-35.3125 35.3125-35.3125 35.308594 15.839844 35.308594 35.3125-15.835938 35.308594-35.308594 35.308594zm0-52.964844c-9.738281 0-17.65625 7.917968-17.65625 17.65625 0 9.738281 7.917969 17.65625 17.65625 17.65625 9.734375 0 17.65625-7.917969 17.65625-17.65625 0-9.738282-7.921875-17.65625-17.65625-17.65625zm0 0"/><path d="m291.308594 326.621094c-19.472656 0-35.308594-15.835938-35.308594-35.3125 0-19.472656 15.835938-35.308594 35.308594-35.308594 19.476562 0 35.3125 15.835938 35.3125 35.308594 0 19.476562-15.835938 35.3125-35.3125 35.3125zm0-52.964844c-9.734375 0-17.652344 7.917969-17.652344 17.652344 0 9.738281 7.917969 17.65625 17.652344 17.65625 9.738281 0 17.65625-7.917969 17.65625-17.65625 0-9.734375-7.917969-17.652344-17.65625-17.652344zm0 0"/><path d="m229.515625 335.449219c-4.871094 0-8.824219-3.945313-8.824219-8.828125v-132.414063c0-4.882812 3.953125-8.828125 8.824219-8.828125 4.875 0 8.828125 3.945313 8.828125 8.828125v132.414063c0 4.882812-3.953125 8.828125-8.828125 8.828125zm0 0"/><path d="m317.792969 300.136719c-4.871094 0-8.828125-3.945313-8.828125-8.828125v-132.410156c0-4.882813 3.957031-8.828126 8.828125-8.828126 4.871093 0 8.828125 3.945313 8.828125 8.828126v132.410156c0 4.882812-3.957032 8.828125-8.828125 8.828125zm0 0"/><path d="m229.515625 238.34375c-1.738281 0-3.46875-.519531-4.949219-1.515625-2.421875-1.644531-3.875-4.378906-3.875-7.3125v-35.308594c0-3.609375 2.195313-6.851562 5.550782-8.199219l88.277343-35.3125c2.71875-1.085937 5.796875-.75 8.226563.890626 2.425781 1.644531 3.875 4.378906 3.875 7.3125v35.308593c0 3.609375-2.199219 6.851563-5.554688 8.199219l-88.273437 35.3125c-1.050781.421875-2.164063.625-3.277344.625zm8.828125-38.160156v16.304687l70.621094-28.25v-16.304687zm79.449219-5.976563h.089843zm0 0"/></g></svg>